HIERARCHY
ROOT RootJoint
{
    OFFSET   0.000000   0.000000   0.000000
    CHANNELS 6 Xposition Yposition Zposition Xrotation Yrotation Zrotation
    JOINT pelvis_lowerback
    {
        OFFSET   0.000000   0.093605   0.000000
        CHANNELS 3 Xrotation Yrotation Zrotation
        JOINT lowerback_torso
        {
            OFFSET   0.000000   0.100000   0.000000
            CHANNELS 3 Xrotation Yrotation Zrotation
            JOINT torso_head
            {
                OFFSET   0.000000   0.282350   0.000000
                CHANNELS 3 Xrotation Yrotation Zrotation
                End Site
                {
                    OFFSET   0.000000   0.192650   0.000000
                }
            }
            JOINT rTorso_Clavicle
            {
                OFFSET  -0.001000   0.157500   0.000000
                CHANNELS 3 Xrotation Yrotation Zrotation
                JOINT rShoulder
                {
                    OFFSET  -0.117647   0.000000   0.000000
                    CHANNELS 3 Xrotation Yrotation Zrotation
                    JOINT rElbow
                    {
                        OFFSET  -0.245000   0.000000   0.000000
                        CHANNELS 3 Xrotation Yrotation Zrotation
                        JOINT rWrist
                        {
                            OFFSET  -0.240000   0.000000   0.000000
                            CHANNELS 3 Xrotation Yrotation Zrotation
                            End Site
                            {
                                OFFSET  -0.116353  -0.002500   0.000000
                            }
                        }
                    }
                }
            }
            JOINT lTorso_Clavicle
            {
                OFFSET   0.001000   0.157500   0.000000
                CHANNELS 3 Xrotation Yrotation Zrotation
                JOINT lShoulder
                {
                    OFFSET   0.117647   0.000000   0.000000
                    CHANNELS 3 Xrotation Yrotation Zrotation
                    JOINT lElbow
                    {
                        OFFSET   0.245000   0.000000   0.000000
                        CHANNELS 3 Xrotation Yrotation Zrotation
                        JOINT lWrist
                        {
                            OFFSET   0.240000   0.000000   0.000000
                            CHANNELS 3 Xrotation Yrotation Zrotation
                            End Site
                            {
                                OFFSET   0.116353  -0.002500   0.000000
                            }
                        }
                    }
                }
            }
        }
    }
    JOINT rHip
    {
        OFFSET  -0.100000  -0.051395   0.000000
        CHANNELS 3 Xrotation Yrotation Zrotation
        JOINT rKnee
        {
            OFFSET   0.000000  -0.410000   0.000000
            CHANNELS 3 Xrotation Yrotation Zrotation
            JOINT rAnkle
            {
                OFFSET   0.000000  -0.390000   0.000000
                CHANNELS 3 Xrotation Yrotation Zrotation
                JOINT rToeJoint
                {
                    OFFSET   0.000000  -0.050000   0.130000
                    CHANNELS 3 Xrotation Yrotation Zrotation
                    End Site
                    {
                        OFFSET  -0.010000   0.002000   0.060000
                    }
                }
            }
        }
    }
    JOINT lHip
    {
        OFFSET   0.100000  -0.051395   0.000000
        CHANNELS 3 Xrotation Yrotation Zrotation
        JOINT lKnee
        {
            OFFSET   0.000000  -0.410000   0.000000
            CHANNELS 3 Xrotation Yrotation Zrotation
            JOINT lAnkle
            {
                OFFSET   0.000000  -0.390000   0.000000
                CHANNELS 3 Xrotation Yrotation Zrotation
                JOINT lToeJoint
                {
                    OFFSET   0.000000  -0.050000   0.130000
                    CHANNELS 3 Xrotation Yrotation Zrotation
                    End Site
                    {
                        OFFSET   0.010000   0.002000   0.060000
                    }
                }
            }
        }
    }
}
MOTION
Frames: 12
Frame Time:   0.008333
 -2.376719   0.925631   3.975860   0.000000   0.000000   0.000000   0.000000   0.000000   0.000000   0.000000   0.000000   0.000000   0.000000   0.000000   0.000000   0.000000   0.000000   0.000000   0.000000   0.000000   0.000000   0.000000   0.000000   0.000000   0.000000   0.000000   0.000000   0.000000   0.000000   0.000000   0.000000   0.000000   0.000000   0.000000   0.000000   0.000000   0.000000   0.000000   0.000000   0.000000   0.000000   0.000000   0.000000   0.000000   0.000000   0.000000   0.000000   0.000000   0.000000   0.000000   0.000000   0.000000   0.000000   0.000000   0.000000   0.000000   0.000000   0.000000   0.000000   0.000000   0.000000   0.000000   0.000000
 -2.376575   0.926513   3.975612   1.203449   0.044983   0.325541  -1.502899   0.133754  -0.466388  -0.029625  -0.162376   0.037702   0.101133   0.064545   0.057197   0.300860  -0.547433   1.046579   0.906757   0.366471   1.750624   0.014214   0.601568  -0.004624   0.604323  -0.167009  -3.282930   0.351151   0.407979  -0.768762   1.364795  -0.219330  -1.710108   0.018607  -0.820441   0.010007   0.553898   0.143911   3.011157  -1.817822  -0.087359  -0.500526   1.482847   0.002235  -0.000723  -0.901081  -0.302396   0.139712  -0.194747  -0.000059   0.000603  -1.547594  -0.370565  -0.271991   0.741865  -0.000374  -0.002161  -0.781012   0.285571  -0.082772   0.111848   0.000030  -0.000048
 -2.376413   0.927953   3.975803   2.360078   0.151143   0.676110  -2.992110   0.249222  -0.949877  -0.153195  -0.352026   0.041471   0.177760   0.127635   0.099174   0.603816  -1.099173   2.940597   1.777690   0.727334   4.193880   0.032541   1.171416  -0.007113   1.234486  -0.229745  -5.761180   0.699662   0.789123  -2.368388   2.639365  -0.467957  -3.970875   0.042636  -1.606013   0.015984   1.155767   0.102955   5.207926  -3.534658  -0.157478  -1.138059   2.987122   0.005439  -0.000759  -1.736971  -0.593532   0.262832  -0.389763  -0.000319   0.000976  -2.963187  -0.733979  -0.490369   1.465103  -0.001244  -0.003493  -1.516673   0.552176  -0.157717   0.149407   0.000003  -0.000044
 -2.376278   0.929458   3.976329   3.449101   0.286571   1.006425  -4.446895   0.350261  -1.409327  -0.324528  -0.550499   0.029755   0.238332   0.186938   0.133374   0.911749  -1.634197   5.321262   2.612596   1.095677   7.090379   0.049802   1.693874  -0.008110   1.833178  -0.310494  -7.239120   1.039957   1.141115  -4.477682   3.816354  -0.746561  -6.533621   0.065300  -2.336686   0.018917   1.733316   0.031350   6.411863  -5.116489  -0.200475  -1.837743   4.416438   0.008790  -0.000545  -2.515715  -0.868313   0.372571  -0.572115  -0.000657   0.001165  -4.234618  -1.072064  -0.618050   2.157785  -0.002388  -0.004199  -2.204015   0.803017  -0.224347   0.169709  -0.000023  -0.000034
 -2.376184   0.930667   3.977068   4.472392   0.429280   1.310906  -5.855708   0.444036  -1.840879  -0.525539  -0.748343   0.011109   0.287667   0.242409   0.162742   1.231767  -2.150459   7.967069   3.408072   1.479159  10.256945   0.063918   2.172548  -0.008215   2.397010  -0.419215  -7.951134   1.377487   1.472839  -6.872436   4.901655  -1.054212  -9.235033   0.083773  -3.015000   0.019933   2.280733  -0.042124   6.865363  -6.580871  -0.218406  -2.573875   5.762029   0.011904  -0.000417  -3.242484  -1.127026   0.470685  -0.746167  -0.001018   0.001256  -5.380485  -1.387500  -0.662109   2.820529  -0.003619  -0.004542  -2.845720   1.039111  -0.283288   0.180341  -0.000039  -0.000026
 -2.376103   0.931301   3.977921   5.431586   0.567988   1.588933  -7.209462   0.533932  -2.238707  -0.742593  -0.940938   0.001075   0.328566   0.294213   0.184887   1.568094  -2.644007  10.768825   4.131716   1.865543  13.451649   0.074078   2.612682  -0.007726   2.930272  -0.540449  -8.076457   1.715449   1.786800  -9.405466   5.900784  -1.387997 -11.969390   0.097146  -3.644908   0.019828   2.798584  -0.113858   6.804313  -7.942743  -0.214154  -3.332862   7.025034   0.014615  -0.000475  -3.920975  -1.370335   0.558558  -0.911937  -0.001367   0.001288  -6.416903  -1.683479  -0.637100   3.453292  -0.004788  -0.004670  -3.444731   1.261082  -0.335318   0.184330  -0.000040  -0.000020
 -2.376024   0.931157   3.978814   6.328366   0.696459   1.843748  -8.501413   0.620977  -2.600935  -0.964943  -1.126554   0.001402   0.362775   0.342599   0.203495   1.920212  -3.110525  13.608954   4.788644   2.253954  16.590457   0.080430   3.018166  -0.006973   3.435705  -0.667037  -7.829065   2.054422   2.081315 -11.972340   6.818764  -1.744201 -14.664132   0.105559  -4.230718   0.019133   3.289346  -0.186803   6.414127  -9.213746  -0.190131  -4.105447   8.208388   0.016824  -0.000715  -4.554429  -1.599001   0.637304  -1.068723  -0.001680   0.001286  -7.357313  -1.962249  -0.557867   4.055801  -0.005811  -0.004670  -4.003803   1.469489  -0.381265   0.184146  -0.000032  -0.000016
 -2.375915   0.929490   3.979647   6.790600   0.713583   1.989843  -9.301824   0.745289  -2.774906  -1.036581  -1.277341  -0.002323   0.171934   0.266064   0.257648   2.276657  -3.334626  15.938107   5.497679   2.601256  19.167676   0.090760   3.626606  -0.008551   3.913797  -0.843629  -6.318540   2.364246   2.395755 -13.920233   7.614650  -2.322295 -17.166168   0.115637  -5.007755   0.020314   3.705358  -0.199848   4.943209 -10.059401  -0.164292  -4.668027   9.517050   0.018036  -0.001960  -5.504507  -1.956539   0.777362  -1.085079  -0.001384   0.001086  -7.643873  -2.113684  -0.405963   4.073813  -0.004697  -0.003759  -4.105187   1.557394  -0.359856   0.092454   0.000232   0.000049
 -2.375786   0.926544   3.980249   7.196426   0.748967   2.106791 -10.016790   0.850348  -2.909626  -1.067925  -1.422952   0.007112  -0.005454   0.188746   0.319116   2.588548  -3.467966  17.872796   6.133779   2.995143  21.397985   0.094487   4.214914  -0.009841   4.401335  -0.899289  -4.994816   2.638165   2.619903 -15.535609   8.322851  -2.936801 -19.354956   0.118298  -5.758856   0.021077   4.123637  -0.364550   3.601234 -10.838427  -0.143174  -5.137697  10.776309   0.018092  -0.002738  -6.391823  -2.293513   0.902430  -1.114509  -0.001165   0.000963  -7.906323  -2.255133  -0.287419   4.042257  -0.003687  -0.002978  -4.198776   1.638252  -0.339966   0.032700   0.000320   0.000068
 -2.375649   0.922468   3.980686   7.569968   0.795851   2.211280 -10.665840   0.946138  -3.027029  -1.088015  -1.561687   0.019441  -0.167998   0.116116   0.381059   2.858620  -3.543180  19.516665   6.702988   3.411777  23.358905   0.093785   4.776585  -0.010721   4.881055  -0.881945  -3.968189   2.876910   2.779441 -16.898848   8.953284  -3.559945 -21.284804   0.115924  -6.472609   0.021279   4.532500  -0.602341   2.526513 -11.561884  -0.119720  -5.537736  11.955605   0.017302  -0.003097  -7.219123  -2.608917   1.014376  -1.138365  -0.000970   0.000840  -8.170966  -2.385897  -0.212359   3.997673  -0.002873  -0.002347  -4.286431   1.713365  -0.321532  -0.019340   0.000347   0.000072
 -2.375511   0.917367   3.981019   7.917287   0.846796   2.307203 -11.260285   1.036909  -3.132967  -1.104242  -1.690986   0.031482  -0.317907   0.048235   0.440662   3.092745  -3.579502  20.935842   7.213207   3.835828  25.102205   0.090246   5.309283  -0.011214   5.346805  -0.820930  -3.179702   3.085378   2.895708 -18.064797   9.515942  -4.175472 -23.001478   0.110412  -7.146492   0.020976   4.926436  -0.874072   1.677691 -12.232626  -0.094971  -5.876813  13.055319   0.015976  -0.003191  -7.990909  -2.903952   1.114732  -1.158362  -0.000800   0.000725  -8.435453  -2.506633  -0.176889   3.946349  -0.002232  -0.001841  -4.368372   1.783136  -0.304481  -0.065224   0.000339   0.000069
 -2.375383   0.916816   3.981783   8.187506   0.996380   2.412340 -11.882708   1.095083  -3.265540  -1.133064  -1.835700   0.027418  -0.439735  -0.016419   0.498269   3.330203  -3.625094  22.484266   7.683273   4.231813  26.760913   0.086059   5.792140  -0.010974   5.792207  -0.826197  -2.605803   3.285905   2.999083 -19.378250  10.023329  -4.767293 -24.638232   0.104815  -7.763716   0.019544   5.305207  -1.064029   1.057096 -13.056987   0.022976  -6.037801  14.347582   0.013425  -0.001084  -8.762118  -3.069773   1.387166  -1.042073  -0.000880   0.000577  -8.810080  -2.592135  -0.313315   4.106368  -0.001783  -0.001419  -4.020425   1.873610  -0.369985   0.000129   0.000302   0.000128
